<?xml version="1.0" encoding="UTF-8" standalone="no"?>
<svg
   width="900"
   height="760"
   viewBox="0 0 900 760"
   version="1.1"
   id="svg22"
   xmlns="http://www.w3.org/2000/svg"
   xmlns:svg="http://www.w3.org/2000/svg">
  <defs
     id="defs26" />
  <g
     transform="matrix(0.8894,0,0,0.8894,270.77,42.351)"
     id="g16">
    <g
       id="g2" />
    <g
       transform="translate(-748.37,-283.28)"
       id="g14">
      <path
         d="m 821.99,456.04 c 0,0 33.843,-25.904 42.958,-37.299 16.443,-16.428 69.421,-119.47 69.421,-119.47 h 84 c 0,0 -31.246,20.929 -46.577,41.689 -15.331,20.76 -25.564,65 -39.256,84.008 -13.692,19.008 -34.687,32.928 -34.687,32.928 l -32.059,-2.1464 z"
         fill="#00cfff"
         id="path4" />
      <path
         d="m 764.37,299.28 v 193.15 c 10.069,-26.351 43.552,-50.784 64,-60.89 V 299.28 Z"
         fill="#39a339"
         id="path6" />
      <path
         d="m 764.37,644.28 h 64 v -107 c 0,-15.381 18.077,-33.646 29.828,-33.646 11.713,0 16.081,10.345 16.081,10.345 l 75.09,130.3 h 74 l -97.24,-161.3 c 0,0 -20.645,-34.285 -67.932,-34.285 -65.307,-0.0967 -93.828,62.694 -93.828,97.532 z"
         fill="#004d36"
         id="path8" />
      <path
         d="m 1123.6,394.58 h -64.709 l -37.522,38.146 61.914,0.72851 0.6582,13.959 h -75.137 l -52.58,54.83 c 0,0 95.832,4.059 135.08,-32.617 15.572,-14.55 25.715,-44.367 32.291,-75.047 z"
         fill="#004d36"
         id="path10" />
      <path
         d="m 1135.4,299.28 c 0,0 -120.97,19.527 -154.63,58.254 -33.665,38.727 -28.902,127.53 -28.902,127.53 l 49.795,-51.99 0.5469,-68.855 12.547,0.17969 1.3984,52.627 34.707,-35.701 -0.6504,-50.518 11.297,-0.36328 2.127,35.85 40.416,-38.863 10.143,9.6894 -42.652,44.205 h 37.822 v 13.264 h 14.295 c 9.9997,-46.655 11.744,-95.307 11.744,-95.307 z"
         fill="#39a339"
         id="path12" />
    </g>
  </g>
  <!-- Editable source: wordmark uses the Montserrat display family. For a
       self-contained asset use lockup-outlined.svg (text converted to paths). -->
  <g
     aria-label="KLOROPHYLLE"
     id="text18"
     style="font-size:92px;font-family:KLRMontserratBold;letter-spacing:1;text-anchor:middle;fill:#003423">
    <path
       d="m 106.34788,585.28 -0.828,-17.204 30.82,-32.476 h 16.56 l -27.784,29.9 -8.28,8.832 z M 93.007876,600 V 535.6 H 107.81988 V 600 Z m 44.068004,0 -22.908,-28.06 9.752,-10.58 30.544,38.64 z"
       id="path28" />
    <path
       d="m 162.08785,600 v -64.4 h 14.904 v 52.256 h 32.292 V 600 Z"
       id="path30" />
    <path
       d="m 248.83194,601.104 q -7.636,0 -14.168,-2.484 -6.44,-2.484 -11.224,-6.992 -4.692,-4.508 -7.36,-10.58 -2.576,-6.072 -2.576,-13.248 0,-7.176 2.576,-13.248 2.668,-6.072 7.452,-10.58 4.784,-4.508 11.224,-6.992 6.44,-2.484 13.984,-2.484 7.636,0 13.984,2.484 6.44,2.484 11.132,6.992 4.784,4.508 7.452,10.58 2.668,5.98 2.668,13.248 0,7.176 -2.668,13.34 -2.668,6.072 -7.452,10.58 -4.692,4.416 -11.132,6.9 -6.348,2.484 -13.892,2.484 z m -0.092,-12.696 q 4.324,0 7.912,-1.472 3.68,-1.472 6.44,-4.232 2.76,-2.76 4.232,-6.532 1.564,-3.772 1.564,-8.372 0,-4.6 -1.564,-8.372 -1.472,-3.772 -4.232,-6.532 -2.668,-2.76 -6.348,-4.232 -3.68,-1.472 -8.004,-1.472 -4.324,0 -8.004,1.472 -3.588,1.472 -6.348,4.232 -2.76,2.76 -4.324,6.532 -1.472,3.772 -1.472,8.372 0,4.508 1.472,8.372 1.564,3.772 4.232,6.532 2.76,2.76 6.44,4.232 3.68,1.472 8.004,1.472 z"
       id="path32" />
    <path
       d="m 296.19992,600 v -64.4 h 27.508 q 13.432,0 20.884,6.256 7.452,6.164 7.452,17.112 0,7.176 -3.404,12.42 -3.404,5.152 -9.66,7.912 -6.256,2.76 -14.904,2.76 h -19.596 l 6.624,-6.532 V 600 Z m 40.94,0 -16.1,-23.368 h 15.916 l 16.284,23.368 z m -26.036,-22.816 -6.624,-6.992 h 18.768 q 6.9,0 10.304,-2.944 3.404,-3.036 3.404,-8.28 0,-5.336 -3.404,-8.28 -3.404,-2.944 -10.304,-2.944 h -18.768 l 6.624,-7.084 z"
       id="path34" />
    <path
       d="m 396.09998,601.104 q -7.636,0 -14.168,-2.484 -6.44,-2.484 -11.224,-6.992 -4.692,-4.508 -7.36,-10.58 -2.576,-6.072 -2.576,-13.248 0,-7.176 2.576,-13.248 2.668,-6.072 7.452,-10.58 4.784,-4.508 11.224,-6.992 6.44,-2.484 13.984,-2.484 7.636,0 13.984,2.484 6.44,2.484 11.132,6.992 4.784,4.508 7.452,10.58 2.668,5.98 2.668,13.248 0,7.176 -2.668,13.34 -2.668,6.072 -7.452,10.58 -4.692,4.416 -11.132,6.9 -6.348,2.484 -13.892,2.484 z m -0.092,-12.696 q 4.324,0 7.912,-1.472 3.68,-1.472 6.44,-4.232 2.76,-2.76 4.232,-6.532 1.564,-3.772 1.564,-8.372 0,-4.6 -1.564,-8.372 -1.472,-3.772 -4.232,-6.532 -2.668,-2.76 -6.348,-4.232 -3.68,-1.472 -8.004,-1.472 -4.324,0 -8.004,1.472 -3.588,1.472 -6.348,4.232 -2.76,2.76 -4.324,6.532 -1.472,3.772 -1.472,8.372 0,4.508 1.472,8.372 1.564,3.772 4.232,6.532 2.76,2.76 6.44,4.232 3.68,1.472 8.004,1.472 z"
       id="path36" />
    <path
       d="m 443.46796,600 v -64.4 h 27.876 q 8.648,0 14.904,2.852 6.256,2.76 9.66,8.004 3.404,5.244 3.404,12.512 0,7.176 -3.404,12.42 -3.404,5.244 -9.66,8.096 -6.256,2.76 -14.904,2.76 h -19.596 l 6.624,-6.716 V 600 Z m 14.904,-22.816 -6.624,-7.084 h 18.768 q 6.9,0 10.304,-2.944 3.404,-2.944 3.404,-8.188 0,-5.336 -3.404,-8.28 -3.404,-2.944 -10.304,-2.944 h -18.768 l 6.624,-7.084 z"
       id="path38" />
    <path
       d="m 555.05197,600 v -64.4 h 14.904 V 600 Z m -44.16,0 v -64.4 h 14.904 V 600 Z m 13.8,-26.404 v -12.604 h 31.464 v 12.604 z"
       id="path40" />
    <path
       d="m 601.22407,600 v -26.312 l 3.404,9.016 -28.336,-47.104 h 15.824 l 21.712,36.156 h -9.108 l 21.804,-36.156 h 14.628 l -28.336,47.104 3.312,-9.016 V 600 Z"
       id="path42" />
    <path
       d="m 647.39618,600 v -64.4 h 14.904 v 52.256 h 32.292 V 600 Z"
       id="path44" />
    <path
       d="m 703.96417,600 v -64.4 h 14.904 v 52.256 h 32.292 V 600 Z"
       id="path46" />
    <path
       d="m 760.53217,600 v -64.4 h 48.668 v 11.96 h -33.856 v 40.48 h 35.052 V 600 Z m 13.708,-26.864 v -11.592 h 31.004 v 11.592 z"
       id="path48" />
  </g>
  <g
     aria-label="PLANT MONITOR"
     id="text20"
     style="font-size:32px;font-family:KLRMontserratSemiBold;letter-spacing:16;text-anchor:middle;fill:#39a339">
    <path
       d="m 215.504,663 v -22.4 h 9.216 q 2.976,0 5.088,0.96 2.144,0.96 3.296,2.752 1.152,1.792 1.152,4.256 0,2.464 -1.152,4.256 -1.152,1.792 -3.296,2.752 -2.112,0.96 -5.088,0.96 h -6.912 l 1.856,-1.952 V 663 Z m 4.16,-7.968 -1.856,-2.016 h 6.72 q 2.752,0 4.128,-1.152 1.408,-1.184 1.408,-3.296 0,-2.144 -1.408,-3.296 -1.376,-1.152 -4.128,-1.152 h -6.72 l 1.856,-2.048 z"
       id="path51" />
    <path
       d="m 254.41599,663 v -22.4 h 4.16 v 18.88 h 11.712 V 663 Z"
       id="path53" />
    <path
       d="m 286.448,663 10.08,-22.4 h 4.096 l 10.112,22.4 h -4.352 l -8.672,-20.192 h 1.664 L 290.736,663 Z m 4.64,-5.184 1.12,-3.264 h 12.096 l 1.12,3.264 z"
       id="path55" />
    <path
       d="m 329.58402,663 v -22.4 h 3.424 l 14.048,17.248 h -1.696 V 640.6 h 4.128 V 663 h -3.424 l -14.048,-17.248 h 1.696 V 663 Z"
       id="path57" />
    <path
       d="m 376.048,663 v -18.88 h -7.424 v -3.52 h 19.008 v 3.52 h -7.424 V 663 Z"
       id="path59" />
    <path
       d="m 431.59995,663 v -22.4 h 3.424 l 9.792,16.352 h -1.792 l 9.632,-16.352 h 3.424 l 0.032,22.4 h -3.936 l -0.032,-16.224 h 0.832 l -8.192,13.664 h -1.856 l -8.32,-13.664 h 0.96 V 663 Z"
       id="path61" />
    <path
       d="m 488.65595,663.32 q -2.624,0 -4.832,-0.864 -2.208,-0.864 -3.84,-2.4 -1.632,-1.568 -2.528,-3.648 -0.896,-2.112 -0.896,-4.608 0,-2.496 0.896,-4.576 0.896,-2.112 2.528,-3.648 1.632,-1.568 3.84,-2.432 2.208,-0.864 4.8,-0.864 2.624,0 4.8,0.864 2.208,0.864 3.84,2.432 1.632,1.536 2.528,3.648 0.896,2.08 0.896,4.576 0,2.496 -0.896,4.608 -0.896,2.112 -2.528,3.648 -1.632,1.536 -3.84,2.4 -2.176,0.864 -4.768,0.864 z m -0.032,-3.648 q 1.696,0 3.136,-0.576 1.44,-0.576 2.496,-1.632 1.056,-1.088 1.632,-2.496 0.608,-1.44 0.608,-3.168 0,-1.728 -0.608,-3.136 -0.576,-1.44 -1.632,-2.496 -1.056,-1.088 -2.496,-1.664 -1.44,-0.576 -3.136,-0.576 -1.696,0 -3.136,0.576 -1.408,0.576 -2.496,1.664 -1.056,1.056 -1.664,2.496 -0.576,1.408 -0.576,3.136 0,1.696 0.576,3.136 0.608,1.44 1.664,2.528 1.056,1.056 2.496,1.632 1.44,0.576 3.136,0.576 z"
       id="path63" />
    <path
       d="m 521.10398,663 v -22.4 h 3.424 l 14.048,17.248 h -1.696 V 640.6 h 4.128 V 663 h -3.424 l -14.048,-17.248 h 1.696 V 663 Z"
       id="path65" />
    <path
       d="m 563.02396,663 v -22.4 h 4.16 V 663 Z"
       id="path67" />
    <path
       d="m 593.77597,663 v -18.88 h -7.424 v -3.52 h 19.008 v 3.52 h -7.424 V 663 Z"
       id="path69" />
    <path
       d="m 634.67194,663.32 q -2.624,0 -4.832,-0.864 -2.208,-0.864 -3.84,-2.4 -1.632,-1.568 -2.528,-3.648 -0.896,-2.112 -0.896,-4.608 0,-2.496 0.896,-4.576 0.896,-2.112 2.528,-3.648 1.632,-1.568 3.84,-2.432 2.208,-0.864 4.8,-0.864 2.624,0 4.8,0.864 2.208,0.864 3.84,2.432 1.632,1.536 2.528,3.648 0.896,2.08 0.896,4.576 0,2.496 -0.896,4.608 -0.896,2.112 -2.528,3.648 -1.632,1.536 -3.84,2.4 -2.176,0.864 -4.768,0.864 z m -0.032,-3.648 q 1.696,0 3.136,-0.576 1.44,-0.576 2.496,-1.632 1.056,-1.088 1.632,-2.496 0.608,-1.44 0.608,-3.168 0,-1.728 -0.608,-3.136 -0.576,-1.44 -1.632,-2.496 -1.056,-1.088 -2.496,-1.664 -1.44,-0.576 -3.136,-0.576 -1.696,0 -3.136,0.576 -1.408,0.576 -2.496,1.664 -1.056,1.056 -1.664,2.496 -0.576,1.408 -0.576,3.136 0,1.696 0.576,3.136 0.608,1.44 1.664,2.528 1.056,1.056 2.496,1.632 1.44,0.576 3.136,0.576 z"
       id="path71" />
    <path
       d="m 667.11997,663 v -22.4 h 9.184 q 4.48,0 7.008,2.112 2.56,2.112 2.56,5.856 0,2.464 -1.152,4.256 -1.152,1.76 -3.296,2.72 -2.112,0.928 -5.088,0.928 h -6.912 l 1.856,-1.888 V 663 Z m 14.656,0 -5.664,-8.128 h 4.448 l 5.696,8.128 z m -10.496,-7.968 -1.856,-1.984 h 6.72 q 2.752,0 4.128,-1.184 1.408,-1.184 1.408,-3.296 0,-2.144 -1.408,-3.296 -1.376,-1.152 -4.128,-1.152 h -6.72 l 1.856,-2.048 z"
       id="path73" />
  </g>
</svg>
